<?xml version="1.0" encoding="UTF-8"?>
<!DOCTYPE svg PUBLIC "-//W3C//DTD SVG 1.1//EN" "http://www.w3.org/Graphics/SVG/1.1/DTD/svg11.dtd">
<!-- Creator: CorelDRAW 2021 (64-Bit) -->
<svg xmlns="http://www.w3.org/2000/svg" xml:space="preserve" width="210mm" height="110mm" version="1.1" style="shape-rendering:geometricPrecision; text-rendering:geometricPrecision; image-rendering:optimizeQuality; fill-rule:evenodd; clip-rule:evenodd"
viewBox="0 0 21000 11000"
 xmlns:xlink="http://www.w3.org/1999/xlink"
 xmlns:xodm="http://www.corel.com/coreldraw/odm/2003">
 <defs>
  <style type="text/css">
   <![CDATA[
    .fil0 {fill:white}
    .fil1 {fill:white;fill-rule:nonzero}
   ]]>
  </style>
 </defs>
 <g id="Layer_x0020_1">
  <metadata id="CorelCorpID_0Corel-Layer"/>
  <g id="_2888093319136">
   <g>
    <path class="fil0" d="M3334.16 6936.51c-59.17,-45.87 -88.84,-99.24 -175.1,-91.84 -998.34,85.57 -623.99,-1039.09 -266.92,-1569.53 182.27,-270.75 191.53,-267.61 373.63,-486.4 48.84,-58.69 89.24,-90.23 143.3,-143.33 261.61,-257 312.03,-299.09 638.64,-522.41 394.3,-269.6 1417.91,-686.31 1552.72,16.07 60.93,317.42 -92.73,176.8 106.05,439.68 40.71,53.83 203.34,305.91 238.2,334.77 328.47,-884.77 -30.74,-1704.82 -1018.84,-1602.8 -819.44,84.61 -1579.42,720.29 -2014.71,1194.83 -144.7,157.75 -345.8,434.62 -456.51,619.08 -887.85,1479.18 -151.58,2546.58 1223.72,2057.45l-344.18 -245.57z"/>
    <path class="fil0" d="M4368.64 4313.93c34.95,51.51 197.66,171.73 250.22,220.34 39.92,36.93 72.51,80.32 110.8,118.21 45.59,45.09 81.1,70.69 123.36,120.27 142.71,167.42 277.28,324.25 408.74,537.14 181.62,294.14 563.46,1059.89 216.49,1404.66 -399.72,397.18 -1320.1,-128.68 -1684.42,-409.72 -220.21,-169.86 -418.19,-365.43 -602.84,-572.07 -37.41,-41.87 -67.37,-94.96 -113.82,-127.63 -55.44,120.43 -175.22,327.77 -186.78,472.57 213.62,192.75 263.92,285.99 558.01,529.62 574.53,475.97 1745.32,1036.39 2351.07,428.41 598.55,-600.76 57.78,-1763.39 -423.35,-2341.5 -26.93,-32.36 -34.5,-45.38 -57.13,-72.16 -185.65,-219.72 -301.88,-309.95 -477.42,-495.54 -146.89,13.39 -353.54,132.26 -472.93,187.4z"/>
    <path class="fil0" d="M2186.85 4913.57l341.8 -471.53c-45.38,-547.46 146.46,-703.49 677.04,-678.83 73,-39.11 166.41,-124.84 236.32,-174.23 50.53,-35.69 206.42,-133.11 234.21,-164.7 -468.39,-191.66 -1040.99,-159.95 -1344.23,144.13 -311.67,312.55 -323.03,864.48 -145.14,1345.16z"/>
    <path class="fil0" d="M4368.04 6290.79c123.05,55.81 325.08,173.23 473.61,186.88l399.83 -399.29c-12.94,-144.03 -131.86,-353.1 -186.84,-473.04l-332.06 353.64c-31.15,30.56 -49.52,58.64 -81.3,90.62 -48.82,49.1 -237.08,188.65 -273.24,241.19z"/>
   </g>
   <path class="fil1" d="M8048.34 6372.84c-162.13,0 -311.91,-26.19 -449.32,-78.59 -137.42,-52.4 -256.55,-126.54 -357.39,-222.44 -100.84,-95.9 -179.43,-209.09 -235.78,-339.59 -56.35,-130.5 -84.53,-273.85 -84.53,-430.05 0,-156.2 28.18,-299.55 84.53,-430.05 56.35,-130.49 135.44,-243.69 237.26,-339.59 101.83,-95.89 221.45,-170.04 358.87,-222.43 137.42,-52.4 289.17,-78.6 455.26,-78.6 177.95,0 339.1,29.66 483.43,88.98 144.34,59.31 265.94,146.31 364.8,260.99l-272.85 261c-79.09,-81.07 -164.61,-140.88 -256.55,-179.44 -91.94,-38.55 -192.29,-57.83 -301.03,-57.83 -104.8,0 -200.69,16.8 -287.69,50.42 -87,33.61 -162.63,81.56 -226.89,143.84 -64.26,62.28 -113.69,135.94 -148.29,220.96 -34.6,85.02 -51.9,178.94 -51.9,281.75 0,100.84 17.3,193.77 51.9,278.79 34.6,85.02 84.03,159.17 148.29,222.44 64.26,63.27 139.4,111.71 225.41,145.33 86,33.61 181.41,50.42 286.2,50.42 98.86,0 194.76,-15.82 287.69,-47.46 92.93,-31.63 182.89,-85.02 269.89,-160.15l243.2 317.34c-110.73,87 -238.75,152.74 -384.08,197.23 -145.33,44.49 -292.13,66.73 -440.43,66.73zm424.12 -320.31l0 -777.05 400.39 0 0 833.4 -400.39 -56.35zm593.17 287.69l928.31 -2076.1 430.05 0 931.28 2076.1 -453.78 0 -782.98 -1850.69 174.98 0 -782.98 1850.69 -444.88 0zm447.84 -462.67l115.67 -332.18 1094.4 0 115.67 332.18 -1325.74 0zm2945.09 495.29c-288.67,0 -514.57,-81.06 -677.69,-243.2 -163.12,-162.13 -244.68,-395.44 -244.68,-699.94l0 -1165.58 433.01 0 0 1150.75c0,205.64 43,354.42 129.01,446.37 86.01,91.94 207.12,137.91 363.32,137.91 158.18,0 280.27,-45.97 366.28,-137.91 86.01,-91.95 129.02,-240.73 129.02,-446.37l0 -1150.75 427.08 0 0 1165.58c0,304.5 -81.56,537.81 -244.68,699.94 -163.12,162.14 -390.01,243.2 -680.67,243.2zm1818.07 -513.09l-23.73 -507.16 1041.02 -1088.47 483.43 0 -898.65 963.91 -243.2 258.03 -358.87 373.69zm-385.56 480.47l0 -2076.1 430.05 0 0 2076.1 -430.05 0zm1432.51 0l-768.16 -925.35 287.69 -311.41 987.63 1236.76 -507.16 0zm993.56 0l-2.97 -1912.97 189.82 192.78 -613.93 -2.97 -2.97 -352.94 860.1 0 2.96 2076.1 -433.01 0zm1696.47 32.62c-168.07,0 -318.34,-42.01 -450.81,-126.04 -132.48,-84.04 -237.27,-205.64 -314.38,-364.8 -77.11,-159.17 -115.67,-352.45 -115.67,-579.83 0,-227.38 38.56,-420.65 115.67,-579.82 77.11,-159.17 181.9,-280.77 314.38,-364.8 132.47,-84.03 282.74,-126.05 450.81,-126.05 168.06,0 318.33,42.02 450.81,126.05 132.47,84.03 236.77,205.63 312.89,364.8 76.13,159.17 114.19,352.44 114.19,579.82 0,227.38 -38.06,420.66 -114.19,579.83 -76.12,159.16 -180.42,280.76 -312.89,364.8 -132.48,84.03 -282.75,126.04 -450.81,126.04zm0 -370.73c87,0 163.61,-24.71 229.85,-74.14 66.24,-49.43 118.14,-125.56 155.71,-228.37 37.57,-102.82 56.35,-235.29 56.35,-397.43 0,-162.13 -18.78,-294.61 -56.35,-397.42 -37.57,-102.82 -89.47,-178.94 -155.71,-228.37 -66.24,-49.43 -142.85,-74.15 -229.85,-74.15 -87,0 -163.62,24.72 -229.86,74.15 -66.23,49.43 -118.14,125.55 -155.7,228.37 -37.57,102.81 -56.35,235.29 -56.35,397.42 0,162.14 18.78,294.61 56.35,397.43 37.56,102.81 89.47,178.94 155.7,228.37 66.24,49.43 142.86,74.14 229.86,74.14z"/>
  </g>
 </g>
</svg>
